<svg xmlns="http://www.w3.org/2000/svg" version="1.1" xmlns:xlink="http://www.w3.org/1999/xlink" xmlns:svgjs="http://svgjs.com/svgjs" width="1440" height="560" preserveAspectRatio="none" viewBox="0 0 1440 560"><g mask="url(&quot;#SvgjsMask1045&quot;)" fill="none"><rect width="1440" height="560" x="0" y="0" fill="rgba(146, 227, 169, 1)"></rect><path d="M0,689.535C126.831,688.4,204.026,552.032,311.988,485.462C422.679,417.21,601.161,416.711,642.453,293.399C684.846,166.798,522.96,59.579,498.551,-71.681C475.716,-194.48,566.815,-329.449,506.311,-438.721C444.453,-550.439,313.789,-624.767,186.518,-635.22C64.239,-645.263,-34.865,-547.218,-144.516,-492.176C-233.373,-447.572,-332.858,-419.924,-395.763,-342.93C-457.791,-267.009,-478.806,-167.82,-489.164,-70.331C-499.227,24.386,-482.37,116.443,-454.236,207.443C-422.51,310.061,-389.253,412.901,-315.595,491.076C-228.614,583.391,-126.833,690.67,0,689.535" fill="#32c15a"></path><path d="M1440 1106.674C1541.319 1108.4180000000001 1630.654 1042.692 1708.5729999999999 977.9069999999999 1779.978 918.538 1813.431 831.442 1864.396 753.815 1926.067 659.8820000000001 2040.954 586.159 2039.542 473.799 2038.13 361.449 1938.69 275.89 1857.413 198.31 1781.853 126.18700000000001 1692.229 71.51299999999998 1591.018 45.678999999999974 1492.202 20.456000000000017 1389.055 24.515999999999963 1291.374 53.82600000000002 1194.091 83.017 1100.891 131.90699999999998 1037.959 211.62900000000002 976.4259999999999 289.579 971.887 392.9 947.685 489.216 920.407 597.776 838.618 711.607 886.959 812.565 935.402 913.735 1078.268 916.095 1177.304 968.7629999999999 1266.4279999999999 1016.159 1339.0720000000001 1104.937 1440 1106.674" fill="#fafefb"></path></g><defs><mask id="SvgjsMask1045"><rect width="1440" height="560" fill="#ffffff"></rect></mask></defs></svg>