<svg xmlns="http://www.w3.org/2000/svg" viewBox="0 0 500 500"><g id="freepik--background-simple--inject-2"><path d="M464.31,250.58C480.93,144.25,392.23,37.07,275.75,23.76c-1.44-.17-2.9-.32-4.35-.47-81.38-8.08-155.77,54.08-177,101.5s-76.94,92.52-56.31,180.4S114.74,439.9,246.16,453.76,401.82,430,436.71,347.92A420.1,420.1,0,0,0,464.31,250.58Z" style="fill:#92E3A9"></path><path d="M464.31,250.58C480.93,144.25,392.23,37.07,275.75,23.76c-1.44-.17-2.9-.32-4.35-.47-81.38-8.08-155.77,54.08-177,101.5s-76.94,92.52-56.31,180.4S114.74,439.9,246.16,453.76,401.82,430,436.71,347.92A420.1,420.1,0,0,0,464.31,250.58Z" style="fill:#fff;opacity:0.7000000000000001"></path></g><g id="freepik--emoji-1--inject-2"><circle cx="280.75" cy="229.07" r="114.27" transform="translate(-79.75 265.62) rotate(-45)" style="fill:#92E3A9;stroke:#263238;stroke-miterlimit:10"></circle><path d="M399.28,208.73a3.36,3.36,0,0,0-4.74.32c-21.86,25-45.14,35.64-56,39.56-6.29.38-15-.06-26.64-2.58-29.38-6.37-59.74-20.57-85.21-28.9s-61.7-1-61.7-1c-7.35,45,21.88,101.52,69.54,120,30.36,11.75,55.82,12.73,81.78,3.92,13.18-4.48,39.17-17.14,41.62-21.55s-2.45-3.43-2.45-3.43c-6.36,5.39-21.06,13.72-25.46,11.27s-11.76-21.55-1.47-43.59a182,182,0,0,1,17.79-29.91c12.81-5.36,33.47-16.72,53.29-39.37A3.36,3.36,0,0,0,399.28,208.73Z" style="fill:#fff;stroke:#263238;stroke-miterlimit:10"></path><path d="M316.51,320.77a22.34,22.34,0,0,0,6.12,8.51" style="fill:none;stroke:#263238;stroke-miterlimit:10"></path><path d="M182.08,224a99,99,0,0,1,43.59,4.94c29.87,10.77,50,22,68.56,26s31.34,6.86,31.34,6.86-12.24,20.56-12.24,39.17c0,7.64.9,13.21,2.24,17.37" style="fill:none;stroke:#263238;stroke-miterlimit:10"></path><path d="M168.38,226.44a65.29,65.29,0,0,1,7.15-1.58" style="fill:none;stroke:#263238;stroke-miterlimit:10"></path><path d="M177.19,254.84s11.26-4.41,37.71,3.92,43.09,23.5,91.57,27.91" style="fill:none;stroke:#263238;stroke-miterlimit:10"></path><path d="M185.52,281.77s25,2.45,47,13.23,35.75,20.07,72,17.14" style="fill:none;stroke:#263238;stroke-miterlimit:10"></path><path d="M205.1,314.09s15.67,1,43.1,13.72c17.42,8.08,41.13,6.85,61.21.49" style="fill:none;stroke:#263238;stroke-miterlimit:10"></path><path d="M225.56,196.25c-1.48,8.12-6.88,13.93-12.07,13s-8.2-8.29-6.72-16.4,6.87-13.93,12.06-13S227,188.13,225.56,196.25Z" style="fill:#263238"></path><path d="M209.2,165c10.93,0,20.38,4.92,24.86,12a21.7,21.7,0,0,0,.18-2.69,22.77,22.77,0,0,0-45.35-2.46A31.75,31.75,0,0,1,209.2,165Z" style="fill:#263238"></path><ellipse cx="347.01" cy="164.87" rx="17.76" ry="29.07" transform="translate(-21.78 272.54) rotate(-41.69)" style="fill:#fff;opacity:0.33"></ellipse><path d="M354,158.69c5.58,6.27,7,14.12,3.17,17.53s-11.46,1.1-17.05-5.17-7-14.12-3.17-17.53S348.36,152.42,354,158.69Z" style="fill:#fff"></path><path d="M280.77,187.37a29,29,0,0,0-29,25.49c6.47-5.42,15.73-8.82,26-8.82,14,0,26.11,6.3,31.86,15.43a30.15,30.15,0,0,0,.21-3.45A28.89,28.89,0,0,0,280.77,187.37Z" style="fill:#263238"></path><path d="M288.15,218.27s-11.68-18.6-36.34-5.41C251.81,212.86,274.25,208.16,288.15,218.27Z" style="fill:#263238"></path><path d="M400.87,272.77c-9.36-5.21-13.19-14.56-16.05-24.78-5.87-21.06.49-31.83-4.4-36.24s-24-3.43-31.83,17.63S350.06,268.55,354,273s5.88,6.37,5.88,6.37-20.08,8.81-31.34,9.79-23,3.92-26,15.18.49,19.1,12.25,22.53A18.67,18.67,0,0,0,312.35,345c3.92,10.77,13.22,10.77,13.22,10.77s-3.92,11.26,6.86,20.57c19.18,16.57,59.81,12.67,81.29,2.45C442.59,365,455,325.36,436.55,295.06c-7.38-12.13-21.25-15.74-33.46-21.18Q401.94,273.35,400.87,272.77Z" style="fill:#92E3A9;stroke:#263238;stroke-miterlimit:10"></path><path d="M314.8,326.83s6.36,2.45,19.58,1" style="fill:none;stroke:#263238;stroke-miterlimit:10"></path><path d="M325.57,355.72s6.37,1.47,9.79,1" style="fill:none;stroke:#263238;stroke-miterlimit:10"></path><ellipse cx="416.82" cy="303.23" rx="14.61" ry="23.9" transform="translate(-96.12 354.01) rotate(-41.69)" style="fill:#fff;opacity:0.33"></ellipse><ellipse cx="416.82" cy="303.23" rx="8.5" ry="13.9" transform="translate(-96.12 354) rotate(-41.69)" style="fill:#fff"></ellipse></g></svg>